<?xml version="1.0" encoding="UTF-8"?>
<svg width="100mm" height="100mm" version="1.1" viewBox="0 0 100 100" xmlns="http://www.w3.org/2000/svg" xmlns:cc="http://creativecommons.org/ns#" xmlns:dc="http://purl.org/dc/elements/1.1/" xmlns:rdf="http://www.w3.org/1999/02/22-rdf-syntax-ns#">
 <metadata>
  <rdf:RDF>
   <cc:Work rdf:about="">
    <dc:format>image/svg+xml</dc:format>
    <dc:type rdf:resource="http://purl.org/dc/dcmitype/StillImage"/>
    <dc:title/>
   </cc:Work>
  </rdf:RDF>
 </metadata>
 <g fill="#f2f2f2">
  <rect transform="rotate(35)" x="49.183" y="-8.7277" width="50" height="55" ry="2.1232" stroke-width=".29066"/>
  <path d="m89.818 57.9c-0.3077 0.24065-0.56591 0.5456-0.75142 0.90932l-5.0765 9.9528c-0.02588 0.05073-0.04479 0.10321-0.06718 0.15481a6.7009 6.5124 0 0 0-0.87816 3.222 6.7009 6.5124 0 0 0 6.7012 6.5127 6.7009 6.5124 0 0 0 6.7005-6.5127 6.7009 6.5124 0 0 0-0.36567-2.1215v-0.0027l-0.0021-0.0034a6.7009 6.5124 0 0 0-6.91e-4 -0.0021 6.7009 6.5124 0 0 0-0.79367-1.5346z" stroke-width=".33008"/>
  <rect x="54.051" y="3.7798" width="5.6696" height="38.365" ry=".96885" stroke-width=".26458"/>
 </g>
</svg>
